<svg width="100" height="170" viewbox="0 0 100 170"
  xmlns="http://www.w3.org/2000/svg"
  xmlns:xlink="http://www.w3.org/1999/xlink">
  <path d="
    M20 20 
    a10,10 0 0,1 10 10 
    l 0 120 -10 0 0 -120 z"
    stroke-width="6" fill="white" stroke="lightgrey"/>
  <circle cx="25" cy="150" r="14" stroke="lightgrey"
    stroke-width="6" fill="blue" />
  <path d="
    M27 40 l 22 0 
    M27 80 l 22 0 
    M27 120 l 22 0"
    stroke-width="2" fill="red" stroke="red"/>
  <path d="M27 44 l 6 0 
    M27 48 l 6 0 
    M27 52 l 6 0 
    M27 56 l 6 0 
    M27 60 l 6 0 
    M27 64 l 6 0 
    M27 68 l 6 0 
    M27 72 l 6 0 
    M27 76 l 6 0 
    M27 84 l 6 0 
    M27 88 l 6 0 
    M27 92 l 6 0 
    M27 96 l 6 0 
    M27 100 l 6 0 
    M27 104 l 6 0 
    M27 108 l 6 0 
    M27 112 l 6 0 
    M27 116 l 6 0"
    stroke-width="1" fill="red" stroke="grey"/>
  <path d="M27 60 l 6 0 
    M27 100 l 6 0"
    stroke-width="1" fill="red" stroke="red"/>
  <text x="40" y="37" fill="black">40</text>
  <text x="40" y="77" fill="black">30</text>
  <text x="40" y="117" fill="black">20</text>
  <rect x="23" y="40" width="4" height="100" 
    stroke-width="1" fill="blue" stroke="blue"/>
</svg>


